<svg width="312" height="308" viewBox="0 0 312 308" fill="none" xmlns="http://www.w3.org/2000/svg">
<g clip-path="url(#clip0_2_2)">
<path d="M121.046 182.835C71.31 171.024 40.4601 120.972 52.2761 71.2585C64.092 21.5454 114.168 -9.29035 163.904 2.5202C178.351 5.96672 191.762 12.8253 203.011 22.5208C214.26 32.2164 223.019 44.4663 228.555 58.2436L227.558 58.6436C222.087 45.0257 213.429 32.9173 202.31 23.3338C191.191 13.7503 177.936 6.97105 163.655 3.56436C114.496 -8.10928 64.9998 22.3697 53.3207 71.5066C41.6417 120.644 72.1346 170.117 121.294 181.791C134.978 185.087 149.24 185.168 162.96 182.026C176.68 178.884 189.484 172.606 200.367 163.684L201.045 164.516C190.034 173.542 177.08 179.895 163.199 183.073C149.319 186.252 134.89 186.17 121.046 182.835Z" fill="#E6E6E6"/>
<path d="M288.499 130.264H214.19C210.161 130.264 206.884 125.713 206.884 120.118V43.8083C206.884 38.2141 210.161 33.6624 214.19 33.6624H304.694C308.722 33.6624 312 38.2141 312 43.8083V97.6295C312 115.625 301.458 130.264 288.499 130.264Z" fill="#F2F2F2"/>
<path d="M153.905 296.127H159.831L165.59 251.576H152.168L153.905 296.127Z" fill="#A0616A"/>
<path d="M151.971 292.07L161.438 291.505V295.56L170.439 301.773C170.884 302.08 171.219 302.521 171.395 303.031C171.571 303.542 171.579 304.095 171.418 304.611C171.258 305.126 170.936 305.577 170.501 305.897C170.066 306.217 169.54 306.39 168.999 306.39H157.728L155.786 302.379L155.027 306.39H150.777L151.971 292.07Z" fill="#2F2E41"/>
<path d="M65.9129 281.998L71.3192 284.423L94.8221 246.134L82.577 240.641L65.9129 281.998Z" fill="#A0616A"/>
<path d="M65.8102 277.505L74.6789 280.864L73.0182 284.563L78.6849 293.915C78.9648 294.377 79.0897 294.917 79.0413 295.454C78.993 295.992 78.7738 296.5 78.416 296.905C78.0581 297.31 77.5802 297.589 77.0521 297.703C76.524 297.817 75.9733 297.759 75.4804 297.538L65.1973 292.925L65.0675 288.472L62.7328 291.82L58.8556 290.081L65.8102 277.505Z" fill="#2F2E41"/>
<path d="M108.549 154.371L135.96 150.656C135.96 150.656 171.199 232.116 169.724 273.773L147.362 276.53C147.362 276.53 147.532 259.449 148.772 258.142C150.013 256.835 151.543 258.497 150.013 254.76C148.483 251.023 147.255 250.078 149.093 248.256C150.931 246.434 129.184 214.562 129.184 214.562C129.184 214.562 94.9657 257.582 93.1294 258.806C91.293 260.03 89.2065 260.299 90.4028 263.377C91.5991 266.454 89.4556 272.35 89.4556 272.35C89.4556 272.35 75.9703 270.306 70.4612 256.845C70.4612 256.845 92.7383 216.28 94.7605 215.607C96.7826 214.934 97.7008 218.299 96.7826 214.934C95.8644 211.569 94.0281 212.792 95.8644 211.569C97.1014 210.779 98.4399 210.162 99.8432 209.733L106.969 190.904C101.476 178.309 101.827 166.12 108.549 154.371Z" fill="#2F2E41"/>
<path d="M108.286 132.816L109.293 142.143L108.7 154.374L135.805 151.155L138.351 132.816L135.107 132.847L108.286 132.816Z" fill="#FFB6B6"/>
<path d="M131.341 102.688L121.141 94.6384L115.786 94.3272L107.841 99.4149L105.895 109.336L101.294 120.507L108.043 150.656C108.043 150.656 108.676 152.82 107.017 153.08C105.358 153.339 105.557 156.528 105.557 156.528C105.557 156.528 105.895 159.292 104.284 159.536C102.674 159.779 98.3788 159.779 102.137 164.609C105.895 169.438 136.333 151.134 136.333 151.134L139.937 128.529C139.937 128.529 148.31 117.289 139.293 110.851L131.341 102.688Z" fill="#FFB5A9"/>
<path d="M86.8106 171.14C86.3612 170.579 86.0402 169.927 85.8702 169.229C85.7002 168.531 85.6854 167.804 85.8269 167.1C85.9683 166.395 86.2626 165.73 86.6889 165.152C87.1152 164.574 87.6632 164.096 88.2943 163.752L101.125 120.711L109.148 124.749L95.1751 166.003C95.6827 167.101 95.7697 168.346 95.4196 169.504C95.0695 170.662 94.3067 171.651 93.2757 172.285C92.2447 172.918 91.0171 173.151 89.8255 172.94C88.634 172.729 87.5613 172.088 86.8107 171.14H86.8106Z" fill="#A0616A"/>
<path d="M109.683 99.0166C109.683 99.0166 107.39 97.7983 105.821 103.07C104.565 107.291 94.3745 132.431 94.2445 138.543C93.4058 138.721 92.6501 139.172 92.0965 139.827C91.5428 140.481 91.2226 141.3 91.1863 142.157L103.786 143.844C105.988 141.988 106.566 139.481 105.714 138.737L108.449 131.269L119.863 107.507L111.357 99.8679L109.683 99.0166Z" fill="#FFB5A9"/>
<path d="M177.008 156.992C177.171 156.293 177.178 155.566 177.029 154.863C176.881 154.16 176.58 153.498 176.147 152.924C175.715 152.35 175.162 151.878 174.527 151.541C173.893 151.204 173.192 151.009 172.474 150.972L143.04 117.372L136.797 124.819L167.244 155.976C167.261 157.185 167.722 158.346 168.538 159.239C169.355 160.132 170.471 160.694 171.674 160.819C172.878 160.944 174.086 160.624 175.069 159.919C176.052 159.213 176.742 158.172 177.008 156.992Z" fill="#A0616A"/>
<path d="M125.181 101.848C125.181 101.848 126.722 99.7584 130.418 103.834C133.376 107.097 153.441 125.36 156.203 130.815C157.036 130.612 157.913 130.693 158.695 131.043C159.477 131.394 160.12 131.994 160.523 132.751L149.893 139.719C147.105 138.997 145.499 136.986 145.945 135.947L140.248 130.395L119.676 113.904L124.041 103.339L125.181 101.848Z" fill="#FFB5A9"/>
<path d="M130.404 95.0399C131.585 93.3442 121.379 89.3355 119.403 90.0975C115.349 91.6699 110.561 95.0292 106.835 95.5068C106.906 94.029 106.774 92.5484 106.443 91.1064C106.04 92.5714 105.643 94.0418 105.24 95.5121C101.724 95.0131 95.8662 89.1209 97.3051 75.528C97.901 69.931 102.008 63.9797 115.43 61.7742C127.821 59.7457 130.844 68.9382 132.003 74.9431C134.645 88.5789 133.34 94.8306 130.404 95.0399Z" fill="#2F2E41"/>
<path d="M118.868 90.1175C125 90.1175 129.972 85.1488 129.972 79.0195C129.972 72.8902 125 67.9215 118.868 67.9215C112.736 67.9215 107.765 72.8902 107.765 79.0195C107.765 85.1488 112.736 90.1175 118.868 90.1175Z" fill="#A0616A"/>
<path d="M133.813 75.0594L128.494 75.8718C126.148 74.4034 125.255 72.2245 125.144 69.6633L125.679 76.3019L123.136 76.6902C121.477 75.5837 120.736 74.3855 121.182 73.0686L121.494 76.9411C114.718 79.3813 108.15 81.1809 102.605 79.8264C102.32 77.9579 102.405 76.0514 102.856 74.2159C103.308 72.3803 104.117 70.6516 105.236 69.1285C106.356 67.6054 107.765 66.3176 109.383 65.3388C111.001 64.3599 112.796 63.7091 114.665 63.4236L117.402 63.0054C119.272 62.7199 121.179 62.8052 123.015 63.2564C124.852 63.7076 126.581 64.516 128.105 65.6353C129.629 66.7546 130.917 68.163 131.897 69.78C132.876 71.3969 133.527 73.1909 133.813 75.0594Z" fill="#2F2E41"/>
<path d="M36.2225 296.139C35.9138 296.153 35.6082 296.072 35.3471 295.907C35.0859 295.742 34.882 295.5 34.7627 295.215C34.6435 294.93 34.6148 294.615 34.6805 294.313C34.7463 294.012 34.9032 293.737 35.1301 293.528L35.2334 293.117C35.2198 293.084 35.2061 293.052 35.1924 293.019C34.8814 292.284 34.3602 291.658 33.6944 291.219C33.0286 290.78 32.2478 290.547 31.4501 290.55C30.6523 290.553 29.8733 290.792 29.2107 291.236C28.5482 291.68 28.0317 292.31 27.7262 293.046C26.505 295.986 24.9503 298.931 24.5675 302.039C24.3989 303.413 24.47 304.806 24.7777 306.155C21.9096 299.902 20.4203 293.105 20.4107 286.226C20.4101 284.499 20.506 282.774 20.6981 281.059C20.8568 279.652 21.0771 278.256 21.3588 276.87C22.896 269.347 26.1966 262.296 30.9894 256.297C33.309 255.032 35.185 253.086 36.3644 250.722C36.7917 249.873 37.0937 248.966 37.261 248.03C36.9994 248.064 36.2744 244.081 36.4717 243.836C36.1071 243.283 35.4543 243.008 35.0561 242.468C33.0753 239.784 30.3463 240.253 28.9217 243.9C25.8783 245.436 25.8488 247.982 27.7162 250.431C28.9043 251.989 29.0676 254.097 30.11 255.765C30.0027 255.902 29.8912 256.035 29.7839 256.172C27.8235 258.692 26.1148 261.398 24.6824 264.251C25.0307 261.055 24.615 257.821 23.4693 254.817C22.3082 252.018 20.1319 249.66 18.2155 247.239C15.9134 244.332 11.1929 245.601 10.7874 249.286C10.7834 249.322 10.7796 249.358 10.7759 249.393C11.0605 249.554 11.3392 249.724 11.6118 249.904C11.9543 250.133 12.2197 250.46 12.3732 250.842C12.5267 251.224 12.5612 251.644 12.4721 252.046C12.383 252.448 12.1745 252.813 11.8739 253.095C11.5733 253.376 11.1946 253.56 10.7875 253.623L10.7458 253.63C10.8472 254.655 11.0265 255.671 11.282 256.67C8.82342 266.173 14.1314 269.635 21.7105 269.79C21.8778 269.876 22.0409 269.962 22.2082 270.043C20.769 274.12 19.8663 278.366 19.5227 282.675C19.3282 285.218 19.3397 287.771 19.5571 290.312L19.5442 290.222C18.9951 287.397 17.4874 284.848 15.2758 283.005C11.9911 280.308 7.35039 279.315 3.80675 277.147C3.43015 276.906 2.99225 276.777 2.54471 276.776C2.09717 276.774 1.65865 276.901 1.28087 277.141C0.903089 277.381 0.601801 277.724 0.412555 278.129C0.223309 278.535 0.154 278.986 0.212783 279.429C0.217533 279.461 0.222353 279.492 0.227267 279.524C0.755521 279.739 1.26987 279.987 1.7673 280.266C2.05196 280.426 2.33061 280.596 2.60325 280.777C2.94576 281.005 3.21113 281.332 3.36464 281.714C3.51814 282.096 3.55262 282.516 3.46352 282.918C3.37442 283.32 3.16591 283.686 2.86532 283.967C2.56472 284.249 2.18607 284.433 1.77896 284.496L1.73723 284.502C1.70722 284.506 1.68146 284.511 1.65148 284.515C2.55407 286.669 3.82089 288.652 5.39644 290.376C6.93375 298.673 13.5366 299.46 20.5995 297.044H20.6038C21.3787 300.41 22.5015 303.686 23.9541 306.82H35.9226C35.9655 306.687 36.0041 306.55 36.0427 306.417C34.9349 306.487 33.8227 306.42 32.731 306.22C33.619 305.131 34.507 304.033 35.395 302.944C35.4148 302.923 35.4334 302.902 35.4508 302.88C35.9012 302.322 36.3559 301.769 36.8063 301.212L36.8066 301.211C36.8306 299.502 36.6344 297.798 36.2229 296.139L36.2225 296.139Z" fill="#F2F2F2"/>
<path d="M0.639247 307.835L310.283 308C310.452 308 310.615 307.933 310.735 307.813C310.855 307.693 310.922 307.53 310.922 307.361C310.922 307.192 310.855 307.029 310.735 306.909C310.615 306.789 310.452 306.722 310.283 306.722L0.639247 306.557C0.470029 306.558 0.307903 306.625 0.188421 306.745C0.0689377 306.865 0.00185394 307.027 0.00185394 307.196C0.00185394 307.365 0.0689377 307.527 0.188421 307.647C0.307903 307.767 0.470029 307.835 0.639247 307.835Z" fill="#CACACA"/>
<path d="M277.583 159.108H177.222C175.285 159.106 173.428 158.336 172.058 156.967C170.688 155.598 169.918 153.741 169.915 151.805V58.5802C169.918 56.644 170.688 54.7877 172.058 53.4186C173.428 52.0495 175.285 51.2794 177.222 51.2772H277.583C279.52 51.2794 281.377 52.0495 282.747 53.4186C284.117 54.7877 284.887 56.644 284.89 58.5802V151.805C284.887 153.741 284.117 155.598 282.747 156.967C281.377 158.336 279.52 159.106 277.583 159.108Z" fill="#E6E6E6"/>
<path d="M256.46 154.182H182.151C180.214 154.18 178.357 153.41 176.987 152.041C175.618 150.672 174.847 148.815 174.845 146.879V63.5101C174.847 61.5739 175.618 59.7177 176.987 58.3486C178.357 56.9795 180.214 56.2093 182.151 56.2071H272.655C274.592 56.2093 276.449 56.9795 277.819 58.3486C279.189 59.7177 279.959 61.5739 279.961 63.5101V130.692C279.954 136.92 277.476 142.891 273.07 147.294C268.664 151.698 262.691 154.175 256.46 154.182Z" fill="white"/>
<path d="M216.968 84.0242C216.969 86.1474 216.339 88.2231 215.16 89.9888C213.98 91.7545 212.303 93.1309 210.341 93.9439C208.378 94.757 206.219 94.9701 204.135 94.5564C202.052 94.1427 200.138 93.1207 198.635 91.6197C197.133 90.1188 196.11 88.2062 195.695 86.1238C195.28 84.0415 195.492 81.8829 196.304 79.9211C197.117 77.9593 198.493 76.2823 200.259 75.1023C202.025 73.9222 204.101 73.2921 206.225 73.2915C207.636 73.2897 209.034 73.5659 210.338 74.1046C211.641 74.6432 212.826 75.4336 213.824 76.4305C214.822 77.4274 215.613 78.6113 216.153 79.9143C216.692 81.2174 216.969 82.614 216.968 84.0242Z" fill="#FFB5A9"/>
<path d="M224.345 103.391H198.249C196.746 103.391 195.527 104.609 195.527 106.111V107.411C195.527 108.914 196.746 110.132 198.249 110.132H224.345C225.848 110.132 227.066 108.914 227.066 107.411V106.111C227.066 104.609 225.848 103.391 224.345 103.391Z" fill="#3F3D56"/>
<path d="M256.468 116.873H198.338C196.835 116.873 195.616 118.091 195.616 119.593V120.894C195.616 122.396 196.835 123.614 198.338 123.614H256.468C257.972 123.614 259.19 122.396 259.19 120.894V119.593C259.19 118.091 257.972 116.873 256.468 116.873Z" fill="#3F3D56"/>
<path d="M256.468 130.355H198.338C196.835 130.355 195.616 131.573 195.616 133.076V134.376C195.616 135.878 196.835 137.096 198.338 137.096H256.468C257.972 137.096 259.19 135.878 259.19 134.376V133.076C259.19 131.573 257.972 130.355 256.468 130.355Z" fill="#3F3D56"/>
<path d="M206.465 85.5799C208.54 85.5799 210.223 83.8981 210.223 81.8235C210.223 79.7489 208.54 78.0671 206.465 78.0671C204.389 78.0671 202.707 79.7489 202.707 81.8235C202.707 83.8981 204.389 85.5799 206.465 85.5799Z" fill="white"/>
<path d="M210.494 86.9219H202.44C201.942 86.9225 201.465 87.1206 201.112 87.4727C200.76 87.8248 200.562 88.3022 200.561 88.8001C200.676 90.4088 200.927 92.0048 201.313 93.5708C202.928 94.4027 204.728 94.811 206.544 94.7575C208.36 94.704 210.133 94.1904 211.696 93.2649C212.041 91.7972 212.267 90.3041 212.373 88.8001C212.372 88.3022 212.174 87.8248 211.822 87.4727C211.469 87.1206 210.992 86.9225 210.494 86.9219Z" fill="white"/>
<path d="M267.854 74.3501C266.45 74.3501 265.078 73.934 263.911 73.1546C262.744 72.3752 261.834 71.2674 261.297 69.9713C260.76 68.6752 260.62 67.2489 260.893 65.873C261.167 64.497 261.843 63.2332 262.836 62.2412C263.828 61.2492 265.093 60.5736 266.469 60.2999C267.846 60.0262 269.273 60.1667 270.569 60.7036C271.866 61.2404 272.974 62.1496 273.754 63.3161C274.534 64.4825 274.95 65.8539 274.95 67.2569C274.95 69.1381 274.202 70.9423 272.871 72.2725C271.541 73.6027 269.736 74.3501 267.854 74.3501Z" fill="#E6E6E6"/>
<path d="M270.328 68.7412L268.844 67.2568L270.329 65.7726C270.46 65.6413 270.534 65.4634 270.534 65.2778C270.534 65.0922 270.46 64.9142 270.329 64.783C270.197 64.6518 270.019 64.5781 269.834 64.5781C269.648 64.5781 269.47 64.6518 269.339 64.783L267.854 66.2673L266.369 64.783C266.237 64.6518 266.059 64.5781 265.874 64.5781C265.688 64.5781 265.51 64.6518 265.379 64.783C265.247 64.9142 265.173 65.0922 265.173 65.2778C265.173 65.4634 265.247 65.6413 265.379 65.7726L266.864 67.2569L265.379 68.7412C265.247 68.8724 265.173 69.0504 265.173 69.2359C265.173 69.4215 265.247 69.5995 265.379 69.7307C265.51 69.8619 265.688 69.9357 265.874 69.9357C266.059 69.9357 266.237 69.8619 266.369 69.7307L267.854 68.2464L269.338 69.7307C269.403 69.7956 269.481 69.8472 269.566 69.8823C269.651 69.9175 269.742 69.9356 269.833 69.9356C269.925 69.9356 270.016 69.9175 270.101 69.8823C270.186 69.8472 270.263 69.7956 270.328 69.7307C270.393 69.6657 270.445 69.5886 270.48 69.5037C270.515 69.4188 270.534 69.3278 270.534 69.2359C270.534 69.144 270.515 69.053 270.48 68.9681C270.445 68.8832 270.393 68.8061 270.328 68.7411V68.7412Z" fill="white"/>
</g>
<defs>
<clipPath id="clip0_2_2">
<rect width="312" height="308" fill="white"/>
</clipPath>
</defs>
</svg>
